<?xml version="1.0" standalone="no"?><!DOCTYPE svg PUBLIC "-//W3C//DTD SVG 1.1//EN" "http://www.w3.org/Graphics/SVG/1.1/DTD/svg11.dtd"><svg t="1687022677697" class="icon" viewBox="0 0 1024 1024" version="1.1" xmlns="http://www.w3.org/2000/svg" p-id="4788" xmlns:xlink="http://www.w3.org/1999/xlink" width="32" height="32"><path d="M755.472961 545.648638c-1.125612-166.078945 92.197861-170.376736 96.393325-173.037274-52.494454-76.746278-134.152493-88.821025-163.21375-89.946637-69.480963-7.060658-135.58509 40.112721-170.888378 40.112721-35.200959 0-89.639652-40.215049-147.250525-39.191766-75.722994 1.125612-145.613271 43.898871-184.702708 111.74258-78.690517 136.608374-20.158689 338.911562 56.587589 449.630858 37.452183 54.234036 82.169681 115.119416 140.906166 112.970521 56.48526-2.251224 77.87189-36.633557 146.227241-36.633557s87.490756 36.633557 147.352853 35.405616c60.783052-1.125612 99.360847-55.25732 136.506046-109.696013 43.080244-62.931948 60.783052-120.747477 61.806336-123.817328-1.330269-0.61397-118.598581-66.820426-119.826521-177.539722L755.472961 545.648638 755.472961 545.648638z" p-id="4789"></path><path d="M511.829112 288.395115c0-123.203358 99.872489-223.178175 223.178175-223.178175C735.007287 188.522626 635.032469 288.395115 511.829112 288.395115z" p-id="4790"></path></svg>